<?xml version="1.0" standalone="no"?>
<!DOCTYPE svg PUBLIC "-//W3C//DTD SVG 20010904//EN"
 "http://www.w3.org/TR/2001/REC-SVG-20010904/DTD/svg10.dtd">
<svg version="1.0" xmlns="http://www.w3.org/2000/svg"
 width="512.000000pt" height="512.000000pt" viewBox="0 0 512.000000 512.000000"
 preserveAspectRatio="xMidYMid meet">

<g transform="translate(0.000000,512.000000) scale(0.100000,-0.100000)"
fill="#000000" stroke="none">
<path d="M2416 5110 c-411 -65 -737 -359 -841 -758 -29 -109 -35 -229 -35
-687 0 -386 -3 -490 -20 -645 -41 -398 -51 -719 -26 -854 29 -151 91 -266 209
-392 84 -89 173 -159 282 -224 77 -44 115 -50 145 -20 20 20 20 33 20 583 l0
562 -57 45 c-116 92 -204 231 -243 384 -16 64 -20 112 -20 248 0 165 1 169 24
193 27 27 27 27 181 49 335 46 605 197 809 450 42 53 80 96 84 96 17 -1 31
-19 67 -88 72 -138 214 -242 333 -242 71 0 146 -21 196 -55 20 -14 39 -25 41
-25 3 0 5 109 5 243 0 197 -4 259 -19 332 -41 198 -131 365 -271 506 -139 140
-290 227 -478 275 -109 29 -287 39 -386 24z"/>
<path d="M3542 3327 c-38 -40 -118 -70 -189 -71 l-63 -1 0 -36 c0 -57 -36
-181 -73 -255 -49 -97 -119 -186 -188 -240 l-59 -47 0 -562 0 -562 23 -21 c30
-29 46 -28 115 7 199 101 375 278 462 463 83 177 88 391 25 1038 -9 85 -19
190 -23 233 l-7 79 -23 -25z"/>
<path d="M1155 1992 c-88 -36 -166 -75 -208 -105 -83 -60 -164 -156 -211 -251
-58 -119 -67 -167 -73 -413 l-6 -223 177 0 176 0 0 250 c0 284 7 329 71 469
45 97 100 181 176 269 30 34 51 62 46 61 -4 0 -71 -26 -148 -57z"/>
</g>
</svg>
