<?xml version="1.0" standalone="no"?>
<!DOCTYPE svg PUBLIC "-//W3C//DTD SVG 20010904//EN"
 "http://www.w3.org/TR/2001/REC-SVG-20010904/DTD/svg10.dtd">
<svg version="1.0" xmlns="http://www.w3.org/2000/svg"
 width="500.000000pt" height="500.000000pt" viewBox="0 0 500.000000 500.000000"
 preserveAspectRatio="xMidYMid meet">

<g transform="translate(0.000000,500.000000) scale(0.100000,-0.100000)"
fill="#000000" stroke="none">
<path d="M4207 3059 c4 -14 8 -17 13 -9 4 7 14 16 21 21 10 6 6 9 -13 9 -22 0
-25 -4 -21 -21z"/>
<path d="M4257 3039 c-10 -37 -9 -39 26 -39 27 1 29 2 14 11 -10 6 -22 20 -26
32 -8 20 -8 20 -14 -4z"/>
<path d="M690 3030 c7 -4 16 -13 20 -20 5 -8 9 -6 12 8 4 15 0 20 -19 20 -16
0 -20 -3 -13 -8z"/>
<path d="M790 3009 c0 -5 5 -7 10 -4 6 3 10 8 10 11 0 2 -4 4 -10 4 -5 0 -10
-5 -10 -11z"/>
<path d="M647 2985 c-16 -12 -16 -13 8 -17 16 -4 25 -1 25 8 0 20 -13 24 -33
9z"/>
<path d="M4330 2960 c-13 -8 -11 -12 8 -26 22 -15 22 -17 8 -40 -20 -30 -20
-29 8 -29 13 0 22 5 20 10 -3 6 6 15 18 20 33 15 30 49 -4 53 -16 2 -28 8 -28
13 0 12 -11 11 -30 -1z"/>
<path d="M4099 2944 c15 -11 21 -23 18 -35 -7 -25 9 -34 21 -13 6 10 16 15 26
11 9 -4 16 -2 16 4 0 19 -31 41 -50 36 -11 -3 -23 -1 -26 4 -3 5 -10 9 -17 9
-6 0 -1 -7 12 -16z"/>
<path d="M557 2933 c-38 -6 -46 -31 -18 -54 12 -10 20 -22 18 -26 -3 -4 6 -8
19 -8 28 0 28 -1 12 25 -10 15 -9 22 5 38 15 16 14 35 -2 31 -3 -1 -19 -4 -34
-6z"/>
<path d="M758 2906 c-22 -16 -24 -38 -3 -30 9 4 18 -2 23 -17 10 -25 19 -10
18 30 -1 29 -15 35 -38 17z"/>
<path d="M810 2909 c0 -5 5 -7 10 -4 6 3 10 8 10 11 0 2 -4 4 -10 4 -5 0 -10
-5 -10 -11z"/>
<path d="M4000 2910 c0 -5 -9 -10 -20 -10 -25 0 -36 -25 -20 -45 19 -22 53
-20 45 4 -3 10 1 24 10 31 8 7 12 16 9 21 -7 12 -24 11 -24 -1z"/>
<path d="M886 2871 c-3 -5 0 -14 8 -20 8 -7 12 -21 9 -31 -6 -23 0 -25 28 -10
26 14 25 50 -1 50 -11 0 -20 5 -20 10 0 12 -17 13 -24 1z"/>
<path d="M4256 2831 c22 -21 27 -21 18 3 -3 9 -13 16 -22 16 -13 0 -12 -3 4
-19z"/>
<path d="M650 2815 c-14 -16 -10 -18 14 -9 9 3 16 10 16 15 0 14 -16 11 -30
-6z"/>
<path d="M4380 2818 c-25 -11 -25 -11 -2 -15 14 -3 22 -12 22 -24 0 -26 26
-24 34 4 13 49 -1 58 -54 35z"/>
<path d="M495 2810 c-8 -13 13 -60 27 -60 4 0 8 6 8 14 0 8 7 16 15 20 18 7
20 22 3 23 -7 0 -20 4 -29 7 -10 4 -20 2 -24 -4z"/>
<path d="M4300 2811 c0 -5 4 -12 10 -16 5 -3 6 -13 3 -23 -5 -13 -3 -14 6 -6
15 14 11 46 -6 52 -7 2 -13 -1 -13 -7z"/>
<path d="M601 2773 c2 -24 2 -25 6 -5 3 13 9 19 15 16 7 -4 8 -2 4 4 -13 21
-26 13 -25 -15z"/>
<path d="M4250 2763 c0 -9 3 -13 7 -10 3 4 12 2 20 -4 18 -15 17 -1 -1 17 -19
18 -26 18 -26 -3z"/>
<path d="M4045 2759 c-4 -6 -5 -13 -2 -16 7 -7 27 6 27 18 0 12 -17 12 -25 -2z"/>
<path d="M640 2750 c-8 -5 -12 -12 -9 -15 8 -8 39 5 39 16 0 11 -11 11 -30 -1z"/>
<path d="M836 2742 c-3 -6 -1 -14 5 -17 15 -10 25 3 12 16 -7 7 -13 7 -17 1z"/>
<path d="M3970 2715 c5 -6 7 -15 3 -18 -3 -4 3 -7 14 -7 12 0 23 -7 27 -15 3
-8 10 -15 16 -15 6 0 5 7 -2 20 -7 11 -20 20 -28 20 -12 0 -12 2 -2 9 10 6 7
10 -12 13 -20 4 -24 2 -16 -7z"/>
<path d="M4403 2695 c-7 -7 -15 -26 -19 -42 -7 -25 -6 -27 9 -14 9 7 15 17 12
21 -3 5 0 10 6 12 6 2 10 11 8 20 -3 13 -6 14 -16 3z"/>
<path d="M507 2687 c-5 -12 -1 -17 13 -17 11 0 20 5 20 11 0 5 -4 8 -9 5 -5
-4 -11 -1 -13 6 -3 8 -7 6 -11 -5z"/>
<path d="M900 2686 c0 -8 5 -18 10 -21 6 -3 10 1 10 9 0 8 -4 18 -10 21 -5 3
-10 -1 -10 -9z"/>
<path d="M870 2660 c-9 -16 -8 -18 5 -14 8 4 15 12 15 20 0 20 -7 17 -20 -6z"/>
<path d="M525 2650 c3 -5 11 -10 16 -10 6 0 7 5 4 10 -3 6 -11 10 -16 10 -6 0
-7 -4 -4 -10z"/>
<path d="M445 2620 c-3 -5 1 -10 9 -10 9 0 16 5 16 10 0 6 -4 10 -9 10 -6 0
-13 -4 -16 -10z"/>
<path d="M4070 2618 c0 -4 -7 -5 -15 -2 -16 6 -75 -14 -75 -25 0 -3 7 -14 14
-24 12 -15 15 -15 26 -2 7 8 18 15 26 15 7 0 25 11 39 24 25 23 25 25 6 23
-12 -1 -21 -5 -21 -9z"/>
<path d="M4452 2618 c3 -7 13 -15 24 -17 16 -3 17 -1 5 13 -16 19 -34 21 -29
4z"/>
<path d="M817 2614 c-14 -14 -7 -33 16 -40 12 -3 30 -13 39 -21 15 -13 18 -12
28 6 9 18 7 22 -15 31 -15 6 -32 10 -40 10 -7 0 -15 5 -17 11 -2 5 -7 7 -11 3z"/>
<path d="M3220 2590 c0 -21 4 -24 53 -34 l27 -6 -2 -288 -3 -287 -32 -3 c-27
-3 -33 -7 -33 -28 0 -24 0 -24 111 -24 109 0 110 0 107 23 -2 17 -11 23 -38
27 l-35 5 -3 318 -2 317 -75 0 c-69 0 -75 -2 -75 -20z"/>
<path d="M3830 2545 c0 -34 12 -46 25 -24 4 6 12 8 19 6 6 -3 11 7 12 24 1 25
-2 29 -27 29 -26 0 -29 -3 -29 -35z"/>
<path d="M450 2560 c0 -5 9 -10 21 -10 11 0 17 5 14 10 -3 6 -13 10 -21 10 -8
0 -14 -4 -14 -10z"/>
<path d="M990 2552 c0 -4 7 -18 16 -30 11 -17 25 -22 57 -22 89 0 82 22 82
-265 l0 -253 -37 -6 c-36 -6 -43 -14 -38 -45 1 -12 -1 -13 -13 -3 -13 11 -15
9 -13 -11 1 -22 3 -23 21 -11 15 11 67 14 232 14 l213 0 0 54 c0 30 3 61 6 70
5 12 -1 16 -25 16 -27 0 -31 -4 -41 -40 l-11 -40 -109 0 -110 0 0 255 0 255
40 6 c34 6 40 10 40 31 l0 24 -121 -2 c-66 -1 -123 1 -126 5 -9 9 -63 7 -63
-2z"/>
<path d="M3000 2535 l-24 -25 29 -30 c16 -17 31 -30 34 -29 3 0 17 14 30 30
l23 30 -23 25 c-28 30 -40 30 -69 -1z"/>
<path d="M4440 2550 c0 -5 6 -10 14 -10 8 0 18 5 21 10 3 6 -3 10 -14 10 -12
0 -21 -4 -21 -10z"/>
<path d="M2420 2525 c0 -18 5 -25 19 -25 52 0 51 6 51 -265 0 -271 1 -265 -51
-265 -14 0 -19 -7 -19 -25 l0 -25 214 0 213 0 7 53 c10 86 9 89 -21 85 -23 -2
-30 -10 -37 -40 l-10 -38 -108 0 -108 0 0 254 c0 276 -2 266 56 266 19 0 24 5
24 25 l0 25 -115 0 -115 0 0 -25z"/>
<path d="M3942 2538 c-7 -7 -12 -18 -12 -26 0 -9 -7 -11 -21 -7 -18 6 -19 5
-8 -13 9 -15 18 -18 33 -13 12 5 38 6 59 3 41 -5 46 5 21 43 -17 27 -52 33
-72 13z"/>
<path d="M869 2507 l-26 -32 63 -2 c42 -1 66 3 74 12 9 11 7 12 -9 8 -15 -4
-21 -1 -21 10 0 15 -28 37 -47 37 -4 0 -20 -15 -34 -33z"/>
<path d="M520 2510 c0 -12 28 -25 36 -17 3 3 -4 10 -15 17 -15 7 -21 7 -21 0z"/>
<path d="M4373 2503 c-18 -7 -16 -23 2 -23 8 0 15 7 15 15 0 8 -1 15 -2 14 -2
0 -9 -3 -15 -6z"/>
<path d="M630 2481 c0 -5 6 -14 14 -20 12 -10 13 -8 9 8 -5 21 -23 30 -23 12z"/>
<path d="M4261 2478 c-1 -9 -9 -22 -18 -27 -10 -6 -13 -11 -7 -11 17 0 37 27
31 42 -4 8 -6 7 -6 -4z"/>
<path d="M576 2445 c-9 -13 -16 -27 -16 -30 0 -13 22 8 30 29 7 17 9 17 9 4 1
-22 18 -24 18 -3 0 25 -25 25 -41 0z"/>
<path d="M697 2458 c7 -8 10 -18 6 -21 -3 -4 -1 -7 6 -7 17 0 10 32 -9 38 -12
4 -13 3 -3 -10z"/>
<path d="M4188 2453 c7 -3 16 -2 19 1 4 3 -2 6 -13 5 -11 0 -14 -3 -6 -6z"/>
<path d="M4305 2452 c-14 -10 -17 -32 -5 -32 6 0 10 8 11 18 1 11 3 9 8 -7 4
-14 12 -26 20 -29 9 -3 9 4 -3 27 -18 34 -17 34 -31 23z"/>
<path d="M890 2432 c0 -16 -6 -22 -21 -22 -11 0 -17 -4 -14 -10 3 -5 15 -10
25 -10 22 0 37 37 21 53 -8 8 -11 5 -11 -11z"/>
<path d="M3978 2444 c-18 -35 19 -71 45 -45 8 8 6 11 -6 11 -10 0 -21 10 -26
22 -4 12 -10 17 -13 12z"/>
<path d="M650 2421 c0 -6 5 -13 10 -16 6 -3 10 1 10 9 0 9 -4 16 -10 16 -5 0
-10 -4 -10 -9z"/>
<path d="M4230 2404 c0 -14 3 -14 15 -4 8 7 15 14 15 16 0 2 -7 4 -15 4 -8 0
-15 -7 -15 -16z"/>
<path d="M1710 2364 c-69 -14 -90 -25 -90 -51 0 -22 3 -24 23 -19 61 18 137
28 169 22 52 -9 72 -37 73 -99 l0 -52 -100 -5 c-123 -6 -163 -25 -184 -87 -35
-99 55 -181 173 -159 43 8 94 49 112 91 12 28 12 26 7 -27 l-6 -58 72 0 c69 0
71 1 71 24 0 21 -6 25 -32 28 l-33 3 -5 150 c-6 161 -14 192 -59 221 -25 17
-139 28 -191 18z m175 -276 c-17 -82 -78 -134 -145 -124 -83 12 -97 121 -20
149 8 3 50 6 93 6 l79 1 -7 -32z"/>
<path d="M3612 2359 c-56 -11 -62 -15 -62 -46 0 -20 4 -24 18 -18 38 15 134
27 167 21 48 -9 75 -47 75 -106 l0 -48 -102 -4 c-149 -6 -190 -32 -190 -123 0
-78 39 -114 131 -122 73 -6 118 17 149 77 l22 44 0 -56 0 -56 38 -3 c54 -6
102 1 102 13 0 6 7 16 16 22 13 10 8 12 -27 15 -64 3 -69 15 -66 164 3 114 1
132 -18 165 -11 20 -36 45 -55 54 -38 19 -122 22 -198 7z m198 -257 c0 -40
-45 -107 -84 -126 -36 -17 -43 -18 -80 -5 -45 16 -63 48 -52 92 10 40 50 56
139 57 67 0 77 -2 77 -18z"/>
<path d="M2930 2335 c0 -21 6 -26 40 -31 l40 -7 -2 -161 -3 -161 -32 -3 c-27
-3 -33 -7 -33 -28 0 -24 0 -24 111 -24 109 0 110 0 107 23 -2 17 -11 23 -38
27 l-35 5 -3 193 -2 192 -75 0 c-73 0 -75 -1 -75 -25z"/>
<path d="M3944 2205 c-10 -8 -14 -14 -9 -14 6 0 19 6 29 14 11 8 15 15 10 15
-6 0 -19 -7 -30 -15z"/>
<path d="M3950 2169 c0 -5 -4 -7 -10 -4 -5 3 -10 -1 -10 -9 0 -9 7 -16 16 -16
22 0 54 19 54 32 0 7 -5 6 -15 -2 -10 -9 -15 -9 -15 -1 0 6 -4 11 -10 11 -5 0
-10 -5 -10 -11z"/>
<path d="M4020 2163 c8 -3 22 -11 30 -17 13 -10 13 -9 1 7 -7 9 -21 17 -30 16
-13 0 -14 -1 -1 -6z"/>
<path d="M534 2108 c-4 -7 -4 -10 1 -6 4 4 16 3 26 -3 11 -5 19 -7 19 -5 0 3
-9 10 -19 16 -15 7 -22 7 -27 -2z"/>
<path d="M230 2090 c0 -5 5 -10 10 -10 6 0 10 5 10 10 0 6 -4 10 -10 10 -5 0
-10 -4 -10 -10z"/>
<path d="M540 2080 c0 -6 7 -10 15 -10 8 0 15 2 15 4 0 2 -7 6 -15 10 -8 3
-15 1 -15 -4z"/>
<path d="M1020 2080 c8 -5 11 -10 5 -11 -5 -1 -14 -3 -20 -4 -5 -2 -14 -3 -18
-4 -9 -1 18 -31 27 -31 3 0 6 8 6 18 0 14 4 13 19 -7 14 -18 20 -21 26 -11 6
9 4 11 -5 5 -10 -6 -12 -3 -8 12 5 18 -18 43 -39 43 -5 0 -1 -5 7 -10z"/>
<path d="M4665 2030 c3 -5 10 -10 16 -10 5 0 9 5 9 10 0 6 -7 10 -16 10 -8 0
-12 -4 -9 -10z"/>
<path d="M899 1993 c-13 -16 -12 -17 4 -4 9 7 17 15 17 17 0 8 -8 3 -21 -13z"/>
<path d="M620 1991 c0 -5 5 -13 10 -16 6 -3 10 -2 10 4 0 5 -4 13 -10 16 -5 3
-10 2 -10 -4z"/>
<path d="M976 1972 c-2 -4 4 -8 14 -8 10 0 16 4 14 8 -3 4 -9 8 -14 8 -5 0
-11 -4 -14 -8z"/>
<path d="M4245 1949 c-10 -15 3 -25 16 -12 7 7 7 13 1 17 -6 3 -14 1 -17 -5z"/>
<path d="M948 1933 c7 -3 16 -2 19 1 4 3 -2 6 -13 5 -11 0 -14 -3 -6 -6z"/>
<path d="M1000 1916 c0 -2 7 -6 15 -10 8 -3 15 -1 15 4 0 6 -7 10 -15 10 -8 0
-15 -2 -15 -4z"/>
<path d="M894 1858 l-19 -23 23 19 c21 18 27 26 19 26 -2 0 -12 -10 -23 -22z"/>
<path d="M4406 1865 c-3 -8 -1 -15 4 -15 6 0 10 7 10 15 0 8 -2 15 -4 15 -2 0
-6 -7 -10 -15z"/>
<path d="M3995 1850 c-4 -6 3 -10 14 -10 25 0 27 6 6 13 -8 4 -17 2 -20 -3z"/>
<path d="M4043 1838 c5 -13 1 -18 -13 -18 -11 0 -20 -4 -20 -10 0 -14 22 -12
43 4 16 13 16 14 0 27 -15 12 -16 12 -10 -3z"/>
<path d="M4108 1823 c7 -3 16 -2 19 1 4 3 -2 6 -13 5 -11 0 -14 -3 -6 -6z"/>
<path d="M3885 1730 c3 -5 8 -10 11 -10 2 0 4 5 4 10 0 6 -5 10 -11 10 -5 0
-7 -4 -4 -10z"/>
<path d="M966 1612 c-10 -9 -7 -22 5 -22 5 0 7 5 3 11 -4 7 -1 10 7 7 8 -3 13
-11 12 -17 -4 -17 14 -13 21 5 3 9 6 16 6 17 0 5 -50 4 -54 -1z"/>
<path d="M1144 1513 c4 -7 2 -13 -3 -13 -6 0 -11 -7 -11 -15 0 -8 5 -15 11
-15 5 0 7 5 4 10 -9 14 8 13 23 -2 7 -7 12 -9 12 -5 0 4 -10 18 -21 30 -12 12
-19 16 -15 10z"/>
</g>
</svg>
